<svg xmlns="http://www.w3.org/2000/svg" viewBox="0 0 100 100">
  <!-- Green circular background -->
  <circle cx="50" cy="50" r="48" fill="#255036"/>
  
  <!-- Yellow EWD logo (moved slightly higher) -->
  <g transform="translate(-25, -85) scale(0.136)">
    <polygon fill="#FFCF40" points="293.49,925.64 409.7,925.64 419.77,957.93 281.74,957.93"/>
    <polygon fill="#FFCF40" points="260.54,983.43 376.75,983.43 376.75,1014.45 248.88,1014.45"/>
    <polygon fill="#FFCF40" points="304.65,1074.36 437.74,1074.36 425.84,1042.07 318.64,1042.07"/>
    <path fill="#FFCF40" d="M515.26,1074.36h-44.4l-48.23-148.72h42.71l30.16,95.82l31.66-95.82h38.24l30.38,96.67l31.45-96.67h39.52 l-48.23,148.72h-44.4L545.22,983L515.26,1074.36z"/>
    <path fill="#FFCF40" d="M723.61,1000v41.22h26.77c25.71,0,42.71-15.3,42.71-41.22s-17-41.22-42.71-41.22h-68.41v-33.14h70.11 c49.29,0,82.86,28.89,82.86,74.36s-33.56,74.36-82.86,74.36h-70.11V1000H723.61z"/>
  </g>
</svg>