<?xml version="1.0" encoding="utf-8"?>
<!-- Generator: Adobe Illustrator 25.4.1, SVG Export Plug-In . SVG Version: 6.00 Build 0)  -->
<svg version="1.1" id="Layer_1" xmlns="http://www.w3.org/2000/svg" xmlns:xlink="http://www.w3.org/1999/xlink" x="0px" y="0px"
	 viewBox="0 0 2000 2000" style="enable-background:new 0 0 2000 2000;" xml:space="preserve">
<style type="text/css">
	.st0{display:none;fill:#255036;}
	.st1{fill:#FFCF40;}
	.st2{fill:#FFFFFF;}
</style>
<rect class="st0" width="2000" height="2000"/>
<g>
	<g>
		<g>
			<g>
				<polygon class="st1" points="293.49,925.64 409.7,925.64 419.77,957.93 281.74,957.93 				"/>
			</g>
			<g>
				<polygon class="st1" points="260.54,983.43 376.75,983.43 376.75,1014.45 248.88,1014.45 				"/>
			</g>
			<g>
				<polygon class="st1" points="304.65,1074.36 437.74,1074.36 425.84,1042.07 318.64,1042.07 				"/>
			</g>
			<g>
				<g>
					<path class="st1" d="M515.26,1074.36h-44.4l-48.23-148.72h42.71l30.16,95.82l31.66-95.82h38.24l30.38,96.67l31.45-96.67h39.52
						l-48.23,148.72h-44.4L545.22,983L515.26,1074.36z"/>
				</g>
			</g>
			<g>
				<g>
					<path class="st1" d="M723.61,1000v41.22h26.77c25.71,0,42.71-15.3,42.71-41.22s-17-41.22-42.71-41.22h-68.41v-33.14h70.11
						c49.29,0,82.86,28.89,82.86,74.36s-33.56,74.36-82.86,74.36h-70.11V1000H723.61z"/>
				</g>
			</g>
		</g>
	</g>
	<g>
		<g>
			<path class="st2" d="M912.46,994.19h42.3v6.43h-49.73v-70.33h48.23v6.43h-40.79V994.19z M911.66,961.74h37.17v6.33h-37.17V961.74
				z"/>
			<path class="st2" d="M1027.91,1000.62l28.84-38.99v5.73l-27.13-37.08h8.54l22.81,30.94l-3.32,0.1l22.81-31.04h8.04l-26.83,36.57
				v-5.23l28.74,38.99h-8.64l-24.31-33.06h3.11l-24.11,33.06H1027.91z"/>
			<path class="st2" d="M1167.47,1000.62v-70.33h26.32c5.96,0,11.09,0.95,15.37,2.86c4.29,1.91,7.58,4.66,9.9,8.24
				c2.31,3.58,3.47,7.92,3.47,13.01c0,4.96-1.16,9.23-3.47,12.81c-2.31,3.58-5.61,6.35-9.9,8.29c-4.29,1.94-9.41,2.91-15.37,2.91
				h-22.2l3.31-3.52v25.72H1167.47z M1174.9,975.5l-3.31-3.62h22c7.03,0,12.38-1.52,16.03-4.57c3.65-3.05,5.48-7.35,5.48-12.91
				c0-5.63-1.83-9.98-5.48-13.06c-3.65-3.08-9-4.63-16.03-4.63h-22l3.31-3.51V975.5z"/>
			<path class="st2" d="M1304.92,1000.62v-70.33h26.32c5.96,0,11.09,0.95,15.37,2.86c4.29,1.91,7.58,4.66,9.9,8.24
				c2.31,3.58,3.47,7.92,3.47,13.01c0,4.96-1.16,9.23-3.47,12.81c-2.31,3.58-5.61,6.33-9.9,8.24c-4.29,1.9-9.41,2.86-15.37,2.86
				h-22.2l3.31-3.42v25.72H1304.92z M1312.35,975.5l-3.31-3.52h22c7.03,0,12.38-1.54,16.03-4.62c3.65-3.08,5.48-7.4,5.48-12.96
				c0-5.63-1.83-9.98-5.48-13.06c-3.65-3.08-9-4.63-16.03-4.63h-22l3.31-3.51V975.5z M1352.94,1000.62l-18.09-25.52h8.04
				l18.19,25.52H1352.94z"/>
			<path class="st2" d="M1451.3,994.19h42.3v6.43h-49.73v-70.33h48.23v6.43h-40.79V994.19z M1450.5,961.74h37.17v6.33h-37.17V961.74
				z"/>
			<path class="st2" d="M1596.8,1001.22c-5.23,0-10.23-0.85-15.02-2.56c-4.79-1.71-8.49-3.9-11.1-6.58l2.91-5.72
				c2.48,2.41,5.81,4.44,10,6.08c4.18,1.64,8.59,2.47,13.21,2.47c4.42,0,8.02-0.56,10.8-1.66c2.78-1.11,4.82-2.6,6.13-4.47
				c1.3-1.87,1.96-3.95,1.96-6.23c0-2.74-0.79-4.95-2.36-6.63c-1.58-1.67-3.63-2.99-6.18-3.97c-2.55-0.97-5.36-1.83-8.44-2.56
				c-3.08-0.74-6.17-1.52-9.24-2.36c-3.08-0.84-5.91-1.96-8.49-3.37c-2.58-1.41-4.65-3.26-6.23-5.58s-2.36-5.34-2.36-9.09
				c0-3.48,0.92-6.68,2.77-9.6s4.67-5.26,8.49-7.03c3.81-1.77,8.71-2.66,14.67-2.66c3.95,0,7.87,0.55,11.76,1.66
				c3.88,1.11,7.23,2.63,10.04,4.57l-2.51,5.92c-3.02-2.01-6.21-3.48-9.6-4.42c-3.38-0.94-6.65-1.41-9.79-1.41
				c-4.22,0-7.7,0.57-10.45,1.71c-2.75,1.14-4.77,2.66-6.08,4.57c-1.3,1.91-1.96,4.07-1.96,6.48c0,2.75,0.79,4.96,2.36,6.63
				c1.58,1.68,3.65,2.98,6.23,3.92c2.58,0.94,5.41,1.77,8.49,2.51c3.08,0.74,6.14,1.54,9.19,2.41c3.04,0.87,5.86,2,8.44,3.37
				c2.58,1.37,4.65,3.2,6.23,5.48c1.57,2.28,2.36,5.26,2.36,8.94c0,3.41-0.94,6.58-2.81,9.49c-1.88,2.91-4.74,5.26-8.59,7.03
				C1607.76,1000.34,1602.82,1001.22,1596.8,1001.22z"/>
			<path class="st2" d="M1724.9,1001.22c-5.23,0-10.23-0.85-15.02-2.56c-4.79-1.71-8.49-3.9-11.1-6.58l2.91-5.72
				c2.48,2.41,5.81,4.44,10,6.08c4.18,1.64,8.59,2.47,13.21,2.47c4.42,0,8.02-0.56,10.8-1.66c2.78-1.11,4.82-2.6,6.13-4.47
				c1.3-1.87,1.96-3.95,1.96-6.23c0-2.74-0.79-4.95-2.36-6.63c-1.58-1.67-3.63-2.99-6.18-3.97c-2.55-0.97-5.36-1.83-8.44-2.56
				c-3.08-0.74-6.17-1.52-9.24-2.36c-3.08-0.84-5.91-1.96-8.49-3.37c-2.58-1.41-4.65-3.26-6.23-5.58s-2.36-5.34-2.36-9.09
				c0-3.48,0.92-6.68,2.77-9.6s4.67-5.26,8.49-7.03c3.81-1.77,8.71-2.66,14.67-2.66c3.95,0,7.87,0.55,11.76,1.66
				c3.88,1.11,7.23,2.63,10.04,4.57l-2.51,5.92c-3.02-2.01-6.21-3.48-9.6-4.42c-3.38-0.94-6.65-1.41-9.79-1.41
				c-4.22,0-7.7,0.57-10.45,1.71c-2.75,1.14-4.77,2.66-6.08,4.57c-1.3,1.91-1.96,4.07-1.96,6.48c0,2.75,0.79,4.96,2.36,6.63
				c1.58,1.68,3.65,2.98,6.23,3.92c2.58,0.94,5.41,1.77,8.49,2.51c3.08,0.74,6.14,1.54,9.19,2.41c3.04,0.87,5.86,2,8.44,3.37
				c2.58,1.37,4.65,3.2,6.23,5.48c1.57,2.28,2.36,5.26,2.36,8.94c0,3.41-0.94,6.58-2.81,9.49c-1.88,2.91-4.74,5.26-8.59,7.03
				C1735.86,1000.34,1730.92,1001.22,1724.9,1001.22z"/>
		</g>
		<g>
			<path class="st2" d="M1016.92,1070.07l-9.64-28.58h3.1l9.02,26.91h-1.55l9.31-26.91h2.78l9.19,26.91h-1.47l9.11-26.91h2.9
				l-9.64,28.58h-3.19l-8.78-25.52h0.82l-8.82,25.52H1016.92z"/>
			<path class="st2" d="M1092.52,1067.46h17.19v2.61h-20.22v-28.58h19.61v2.61h-16.58V1067.46z M1092.19,1054.27h15.11v2.57h-15.11
				V1054.27z"/>
			<path class="st2" d="M1151.12,1070.07v-28.58h12.33c3.19,0,5.66,0.63,7.41,1.92c1.76,1.28,2.64,3.09,2.64,5.43
				c0,1.55-0.36,2.86-1.08,3.92c-0.73,1.06-1.7,1.86-2.94,2.41s-2.6,0.82-4.06,0.82l0.7-0.98c1.82,0,3.4,0.28,4.72,0.84
				c1.32,0.56,2.35,1.39,3.08,2.49c0.73,1.1,1.1,2.47,1.1,4.1c0,2.42-0.89,4.3-2.68,5.63c-1.78,1.33-4.47,2-8.07,2H1151.12z
				 M1154.15,1067.58h10.08c2.51,0,4.43-0.43,5.76-1.28c1.33-0.86,2-2.23,2-4.11c0-1.85-0.67-3.2-2-4.06
				c-1.33-0.86-3.25-1.29-5.76-1.29h-10.41v-2.49h9.43c2.29,0,4.06-0.44,5.33-1.3c1.27-0.87,1.9-2.17,1.9-3.88
				c0-1.74-0.63-3.04-1.9-3.9c-1.26-0.86-3.04-1.29-5.33-1.29h-9.1V1067.58z"/>
			<path class="st2" d="M1261.22,1070.07v-28.58h11.64c3.05,0,5.72,0.6,8.03,1.81c2.3,1.21,4.09,2.9,5.37,5.04
				c1.28,2.15,1.92,4.63,1.92,7.43c0,2.81-0.64,5.28-1.92,7.44c-1.28,2.15-3.07,3.83-5.37,5.04c-2.3,1.21-4.98,1.82-8.03,1.82
				H1261.22z M1264.24,1067.46h8.45c2.53,0,4.73-0.5,6.6-1.49c1.86-0.99,3.31-2.37,4.35-4.13c1.03-1.76,1.55-3.78,1.55-6.06
				c0-2.31-0.52-4.34-1.55-6.08c-1.04-1.75-2.48-3.11-4.35-4.1c-1.87-1-4.06-1.49-6.6-1.49h-8.45V1067.46z"/>
			<path class="st2" d="M1332.29,1067.46h17.19v2.61h-20.22v-28.58h19.61v2.61h-16.58V1067.46z M1331.96,1054.27h15.11v2.57h-15.11
				V1054.27z"/>
			<path class="st2" d="M1398.77,1070.31c-2.13,0-4.16-0.35-6.1-1.04c-1.95-0.7-3.45-1.59-4.51-2.68l1.18-2.33
				c1,0.98,2.36,1.8,4.06,2.47c1.71,0.67,3.49,1,5.37,1c1.8,0,3.26-0.22,4.39-0.67c1.13-0.45,1.96-1.05,2.49-1.81
				c0.53-0.77,0.79-1.61,0.79-2.53c0-1.12-0.32-2.01-0.96-2.69c-0.64-0.68-1.47-1.22-2.51-1.62c-1.04-0.4-2.18-0.74-3.43-1.04
				s-2.51-0.62-3.76-0.96s-2.4-0.8-3.45-1.37c-1.05-0.57-1.89-1.33-2.53-2.27c-0.63-0.94-0.96-2.17-0.96-3.7
				c0-1.42,0.37-2.72,1.12-3.9c0.75-1.18,1.9-2.14,3.45-2.86c1.55-0.72,3.54-1.08,5.96-1.08c1.6,0,3.2,0.23,4.78,0.67
				c1.58,0.45,2.94,1.07,4.08,1.86l-1.02,2.41c-1.22-0.82-2.52-1.42-3.9-1.8c-1.37-0.38-2.7-0.57-3.98-0.57
				c-1.72,0-3.13,0.23-4.25,0.7c-1.12,0.46-1.94,1.08-2.47,1.86c-0.53,0.77-0.8,1.65-0.8,2.63c0,1.12,0.32,2.02,0.96,2.7
				s1.49,1.21,2.53,1.59c1.05,0.38,2.2,0.72,3.45,1.02c1.25,0.3,2.5,0.62,3.74,0.98c1.24,0.35,2.38,0.81,3.43,1.37
				c1.05,0.56,1.89,1.3,2.53,2.23s0.96,2.14,0.96,3.63c0,1.39-0.38,2.68-1.14,3.86c-0.77,1.18-1.93,2.14-3.49,2.86
				C1403.22,1069.96,1401.22,1070.31,1398.77,1070.31z"/>
			<path class="st2" d="M1450.3,1070.07v-28.58h3.03v28.58H1450.3z"/>
			<path class="st2" d="M1509.48,1070.31c-2.18,0-4.18-0.36-6.02-1.08c-1.84-0.72-3.43-1.73-4.78-3.04
				c-1.35-1.31-2.4-2.85-3.15-4.62c-0.75-1.77-1.12-3.7-1.12-5.8s0.37-4.03,1.12-5.8c0.75-1.77,1.8-3.3,3.16-4.61
				s2.96-2.32,4.8-3.04c1.84-0.72,3.84-1.08,6.02-1.08c2.18,0,4.18,0.34,5.99,1.02c1.81,0.69,3.36,1.72,4.64,3.11l-1.88,1.92
				c-1.2-1.2-2.52-2.06-3.96-2.57c-1.44-0.52-2.99-0.78-4.65-0.78c-1.77,0-3.4,0.29-4.88,0.88c-1.49,0.58-2.78,1.42-3.88,2.49
				c-1.11,1.08-1.96,2.33-2.57,3.76s-0.92,3-0.92,4.72c0,1.69,0.31,3.25,0.92,4.7c0.61,1.44,1.47,2.7,2.57,3.78
				c1.1,1.08,2.39,1.91,3.88,2.49c1.49,0.58,3.09,0.88,4.84,0.88c1.63,0,3.18-0.25,4.64-0.74c1.46-0.49,2.79-1.32,4.02-2.49
				l1.72,2.28c-1.36,1.2-2.95,2.1-4.78,2.72S1511.47,1070.31,1509.48,1070.31z M1517.07,1066.31v-10.54h2.9v10.91L1517.07,1066.31z"
				/>
			<path class="st2" d="M1562.82,1070.07v-28.58h2.49l19.73,24.83h-1.31v-24.83h2.98v28.58h-2.49l-19.69-24.83h1.31v24.83H1562.82z"
				/>
			<path class="st2" d="M1638.2,1070.31c-2.13,0-4.16-0.35-6.1-1.04c-1.95-0.7-3.45-1.59-4.51-2.68l1.18-2.33
				c1,0.98,2.36,1.8,4.06,2.47c1.71,0.67,3.49,1,5.37,1c1.8,0,3.26-0.22,4.39-0.67c1.13-0.45,1.96-1.05,2.49-1.81
				c0.53-0.77,0.79-1.61,0.79-2.53c0-1.12-0.32-2.01-0.96-2.69c-0.64-0.68-1.47-1.22-2.51-1.62c-1.04-0.4-2.18-0.74-3.43-1.04
				s-2.51-0.62-3.76-0.96s-2.4-0.8-3.45-1.37c-1.05-0.57-1.89-1.33-2.53-2.27c-0.63-0.94-0.96-2.17-0.96-3.7
				c0-1.42,0.37-2.72,1.12-3.9c0.75-1.18,1.9-2.14,3.45-2.86c1.55-0.72,3.54-1.08,5.96-1.08c1.6,0,3.2,0.23,4.78,0.67
				c1.58,0.45,2.94,1.07,4.08,1.86l-1.02,2.41c-1.22-0.82-2.52-1.42-3.9-1.8c-1.37-0.38-2.7-0.57-3.98-0.57
				c-1.72,0-3.13,0.23-4.25,0.7c-1.12,0.46-1.94,1.08-2.47,1.86c-0.53,0.77-0.8,1.65-0.8,2.63c0,1.12,0.32,2.02,0.96,2.7
				s1.49,1.21,2.53,1.59c1.05,0.38,2.2,0.72,3.45,1.02s2.5,0.62,3.74,0.98c1.24,0.35,2.38,0.81,3.43,1.37
				c1.05,0.56,1.89,1.3,2.53,2.23s0.96,2.14,0.96,3.63c0,1.39-0.38,2.68-1.14,3.86c-0.77,1.18-1.93,2.14-3.49,2.86
				C1642.66,1069.96,1640.65,1070.31,1638.2,1070.31z"/>
		</g>
	</g>
</g>
</svg>
